<svg width="24" height="17" viewBox="0 0 24 17" fill="none" xmlns="http://www.w3.org/2000/svg">
<path fill-rule="evenodd" clip-rule="evenodd" d="M2.30694 8.4697C3.30694 9.2297 4.01694 8.5197 3.24694 7.6797L3.16694 7.5997C3.00205 7.44364 2.82844 7.29707 2.64694 7.1607C2.45694 7.0207 2.25694 6.9007 2.05694 6.7807C1.5734 6.5089 1.0647 6.28452 0.537942 6.1107C0.449095 6.06694 0.346502 6.06026 0.252734 6.09214C0.158966 6.12402 0.0817028 6.19185 0.037942 6.2807C-0.00581868 6.36954 -0.0124925 6.47214 0.0193887 6.5659C0.0512698 6.65967 0.119095 6.73694 0.207942 6.7807C0.637942 7.0707 0.997942 7.4407 1.40794 7.7807C1.67128 8.01403 1.94794 8.2307 2.23794 8.4307L2.30694 8.4697Z" fill="#1F4AAA"/>
<path fill-rule="evenodd" clip-rule="evenodd" d="M11.994 13.9188C11.9608 13.8259 11.8922 13.7501 11.8031 13.7079C11.714 13.6657 11.6118 13.6606 11.519 13.6938C11.4262 13.7269 11.3503 13.7956 11.3081 13.8847C11.2659 13.9737 11.2608 14.0759 11.294 14.1688C11.3493 14.4603 11.2867 14.762 11.1198 15.0074C10.953 15.2528 10.6955 15.422 10.404 15.4778C10.2276 15.4825 10.0527 15.4448 9.89398 15.3678C9.72317 15.3021 9.56689 15.2036 9.43398 15.0777C9.34607 14.9851 9.26264 14.8884 9.18398 14.7878C9.13876 14.7168 9.10501 14.6392 9.08398 14.5578C9.04338 14.3675 9.07173 14.169 9.16398 13.9977C9.23398 13.9277 9.28398 13.8578 9.34398 13.7878C9.42751 13.6719 9.5328 13.5734 9.65398 13.4977C9.87388 13.3536 10.1311 13.2769 10.394 13.2769C10.6569 13.2769 10.9141 13.3536 11.134 13.4977C11.1978 13.5504 11.279 13.5772 11.3616 13.5728C11.4441 13.5684 11.5221 13.5332 11.5799 13.4741C11.6378 13.415 11.6713 13.3363 11.6739 13.2537C11.6765 13.171 11.648 13.0904 11.594 13.0278C11.3482 12.7759 11.0404 12.5934 10.7015 12.4986C10.3626 12.4038 10.0047 12.4 9.66398 12.4878C9.66175 12.3323 9.6382 12.1778 9.59398 12.0288C9.56833 11.9593 9.52293 11.8988 9.46338 11.8548C9.40383 11.8108 9.33271 11.7851 9.25877 11.781C9.18483 11.7768 9.1113 11.7944 9.0472 11.8315C8.9831 11.8686 8.93124 11.9236 8.89798 11.9897C8.87651 12.0346 8.8643 12.0833 8.86207 12.1329C8.85983 12.1826 8.86763 12.2322 8.88498 12.2788C8.93998 12.4477 8.93998 12.6298 8.88498 12.7987C8.57701 12.9754 8.3216 13.2308 8.14498 13.5387C8.10508 13.5428 8.06488 13.5428 8.02498 13.5387C7.85159 13.5461 7.67928 13.5082 7.52498 13.4288C7.33266 13.3837 7.15203 13.2985 6.99498 13.1788C6.90604 13.0898 6.82569 12.9927 6.75498 12.8888C6.70226 12.8208 6.66475 12.7424 6.64498 12.6588C6.61272 12.448 6.6487 12.2324 6.74764 12.0435C6.84659 11.8546 7.00333 11.7023 7.19498 11.6088C7.41393 11.4621 7.67148 11.3839 7.93498 11.3839C8.19848 11.3839 8.45604 11.4621 8.67498 11.6088C8.73965 11.6638 8.82289 11.692 8.90769 11.6877C8.99248 11.6834 9.07242 11.6468 9.13116 11.5855C9.18991 11.5242 9.22302 11.4428 9.22373 11.3579C9.22444 11.273 9.19269 11.191 9.13498 11.1287C8.93221 10.9137 8.68184 10.7492 8.40396 10.6485C8.12608 10.5477 7.82845 10.5136 7.53498 10.5487C7.57066 10.2696 7.52916 9.98598 7.41498 9.72875C7.37886 9.63994 7.30984 9.56851 7.22233 9.52935C7.13482 9.49019 7.03557 9.48633 6.94528 9.51858C6.85499 9.55082 6.78064 9.61668 6.73773 9.70242C6.69482 9.78816 6.68667 9.88715 6.71498 9.97875C6.74947 10.1256 6.75029 10.2783 6.71738 10.4255C6.68448 10.5727 6.6187 10.7106 6.52498 10.8288C6.33089 10.9328 6.15274 11.0641 5.99598 11.2188C5.93838 11.2478 5.8781 11.2713 5.81598 11.2887C5.64334 11.2885 5.47279 11.251 5.31598 11.1788C5.14517 11.1131 4.98889 11.0146 4.85598 10.8888C4.76473 10.7992 4.68111 10.7022 4.60598 10.5988C4.55428 10.5277 4.52002 10.4455 4.50598 10.3588C4.46479 10.1449 4.49911 9.92346 4.60307 9.73214C4.70703 9.54082 4.87418 9.39153 5.07598 9.30975C5.29588 9.16564 5.55307 9.08887 5.81598 9.08887C6.07889 9.08887 6.33609 9.16564 6.55598 9.30975C6.62059 9.34765 6.69616 9.36244 6.77029 9.3517C6.84441 9.34096 6.91268 9.30532 6.96387 9.25064C7.01506 9.19596 7.04612 9.1255 7.05196 9.05083C7.05779 8.97615 7.03805 8.90172 6.99598 8.83975C6.68013 8.55816 6.29329 8.36832 5.87732 8.29077C5.46134 8.21321 5.03208 8.2509 4.63598 8.39975C4.21876 8.53476 3.86389 8.81511 3.63598 9.18975C3.34842 9.59269 3.2205 10.088 3.27698 10.5798C3.31198 10.7898 3.38298 10.9928 3.48698 11.1798C3.62965 11.4018 3.79631 11.6051 3.98698 11.7898C4.27698 12.0398 4.62398 12.2178 4.99698 12.3088C5.14965 12.3554 5.30631 12.3821 5.46698 12.3888C5.4469 12.5515 5.4469 12.716 5.46698 12.8787C5.50293 13.0874 5.57755 13.2875 5.68698 13.4688C5.82231 13.6994 5.98865 13.9061 6.18598 14.0888C6.66765 14.4974 7.28476 14.711 7.91598 14.6877C7.92137 14.7141 7.92137 14.7414 7.91598 14.7677C7.94898 14.9797 8.02398 15.1838 8.13598 15.3678C8.27098 15.5938 8.43898 15.7998 8.63498 15.9778C8.92098 16.2288 9.26398 16.4077 9.63498 16.4977C10.0008 16.6015 10.3882 16.6015 10.754 16.4977C11.0219 16.415 11.2705 16.2795 11.4852 16.0992C11.6999 15.9189 11.8763 15.6974 12.004 15.4478C12.1141 15.2075 12.1703 14.946 12.1686 14.6816C12.1669 14.4173 12.1073 14.1566 11.994 13.9177" fill="#2962E2"/>
<path fill-rule="evenodd" clip-rule="evenodd" d="M10.794 2.66274C10.9307 2.68941 11.064 2.72608 11.194 2.77274C11.884 3.05274 12.264 2.32274 11.764 2.00274C11.5147 1.85466 11.2452 1.7435 10.964 1.67274C10.3395 1.5384 9.6958 1.51807 9.06402 1.61274C8.50646 1.65005 7.94646 1.6232 7.39502 1.53274L5.34602 0.762744C4.87202 0.564077 4.38202 0.414077 3.87602 0.312744C3.8334 0.316436 3.79201 0.328909 3.75444 0.34938C3.71687 0.369851 3.68395 0.397875 3.65774 0.43169C3.63154 0.465505 3.61261 0.504379 3.60216 0.545864C3.59171 0.58735 3.58996 0.630549 3.59702 0.672744C3.60375 0.747392 3.63646 0.817311 3.68946 0.870308C3.74246 0.923306 3.81238 0.956019 3.88702 0.962744C3.88702 0.962744 4.00702 1.02274 4.11702 1.08274C4.73702 1.40274 6.04602 2.22274 6.93602 2.67274C7.30102 2.88174 7.70602 3.01074 8.12602 3.05274L9.25502 2.82274C9.75776 2.69431 10.2766 2.64041 10.795 2.66274" fill="#1F4AAA"/>
<path fill-rule="evenodd" clip-rule="evenodd" d="M23.909 0.183647C23.8571 0.0976547 23.7732 0.0357074 23.6758 0.011347C23.5784 -0.0130133 23.4752 0.00219471 23.389 0.053647L21.609 1.05365C21.2908 1.23724 20.9564 1.39122 20.61 1.51365C20.4065 1.57885 20.1935 1.60928 19.98 1.60365C19.6453 1.59793 19.3113 1.57121 18.98 1.52365C18.6861 1.47224 18.3959 1.40209 18.111 1.31365C17.691 1.17365 17.291 0.993647 16.871 0.873647C16.5471 0.776059 16.2102 0.728841 15.872 0.733647C15.6006 0.745647 15.3373 0.79898 15.082 0.893647C14.729 1.01065 14.392 1.17565 14.082 1.38365C13.832 1.53365 11.534 3.66165 11.314 3.89165C10.9277 4.25562 10.5914 4.66922 10.314 5.12165C10.1221 5.46159 10.0125 5.84174 9.99398 6.23165C9.9717 6.45953 10.0015 6.68949 10.0812 6.90415C10.1609 7.1188 10.2884 7.31252 10.454 7.47065C10.6892 7.65662 10.9632 7.78732 11.2557 7.8531C11.5482 7.91888 11.8518 7.91804 12.144 7.85065C12.66 7.74665 13.144 7.52065 13.553 7.19065C13.9616 6.86531 14.3416 6.50865 14.693 6.12065C15.2019 6.33471 15.7417 6.46636 16.292 6.51065C16.552 6.54065 16.812 6.54065 17.072 6.51065C17.3293 6.47331 17.5793 6.40665 17.822 6.31065C18.3733 6.07827 18.8727 5.73831 19.291 5.31065C19.3276 5.28663 19.3588 5.25537 19.3828 5.21879C19.4069 5.18221 19.4231 5.14109 19.4306 5.09798C19.4381 5.05486 19.4367 5.01067 19.4264 4.96813C19.4162 4.92559 19.3973 4.8856 19.371 4.85065C19.346 4.81517 19.3144 4.78496 19.2777 4.76174C19.2411 4.73852 19.2003 4.72275 19.1576 4.71532C19.1148 4.70789 19.0711 4.70895 19.0288 4.71844C18.9865 4.72794 18.9464 4.74568 18.911 4.77065C18.4513 4.96665 17.9667 5.0979 17.471 5.16065L16.601 5.31065C16.401 5.31065 16.221 5.38065 16.022 5.39065C15.7091 5.41523 15.3948 5.41523 15.082 5.39065C15.0923 5.3547 15.0923 5.31659 15.082 5.28065C15.0521 5.2498 15.0164 5.22527 14.9769 5.20852C14.9374 5.19177 14.8949 5.18313 14.852 5.18313C14.8091 5.18313 14.7666 5.19177 14.7271 5.20852C14.6876 5.22527 14.6518 5.2498 14.622 5.28065C14.1486 5.75065 13.6423 6.18065 13.103 6.57065C12.7808 6.7933 12.4109 6.93716 12.023 6.99065C11.7546 7.03365 11.4796 6.98429 11.243 6.85065C11.1491 6.79915 11.0743 6.71889 11.0295 6.62169C10.9847 6.52448 10.9722 6.41545 10.994 6.31065C11.0359 6.08177 11.1244 5.86394 11.254 5.67065C11.504 5.32131 11.7906 5.00465 12.114 4.72065C12.604 4.23165 13.114 3.72165 13.633 3.23265C13.9596 2.9306 14.3108 2.65631 14.683 2.41265C14.8763 2.28265 15.0796 2.16931 15.293 2.07265C15.6866 1.9 16.1277 1.86821 16.542 1.98265C16.952 2.07265 17.342 2.22265 17.752 2.34265C18.11 2.43265 18.473 2.49598 18.841 2.53265C19.201 2.55265 19.561 2.55265 19.921 2.53265C20.241 2.52265 20.558 2.46265 20.86 2.35265C21.2569 2.18663 21.6384 1.98585 22 1.75265L23.729 0.662647C23.8152 0.621366 23.882 0.548344 23.9156 0.458871C23.9491 0.369399 23.9468 0.271415 23.909 0.183647Z" fill="#2962E2"/>
<path fill-rule="evenodd" clip-rule="evenodd" d="M18.5599 10.3086C18.4985 10.1337 18.425 9.96325 18.3399 9.79855C18.0571 9.31382 17.7221 8.86147 17.3409 8.44955L16.2709 7.22955C16.2162 7.16807 16.1405 7.12925 16.0587 7.12069C15.9768 7.11213 15.8948 7.13445 15.8285 7.18328C15.7623 7.23211 15.7167 7.30392 15.7007 7.38463C15.6846 7.46534 15.6993 7.54912 15.7419 7.61955L16.5319 9.03955C16.7919 9.45555 17.0186 9.88889 17.2119 10.3396C17.3329 10.5916 17.4139 10.8616 17.4519 11.1396C17.4836 11.3143 17.4777 11.4937 17.4346 11.666C17.3914 11.8383 17.3121 11.9993 17.2019 12.1386C17.0619 12.2986 16.8819 12.4186 16.6819 12.4886C16.6675 12.4509 16.6508 12.4142 16.6319 12.3786C16.4199 12.0657 16.186 11.7683 15.9319 11.4886L14.4919 9.85855C14.4643 9.81784 14.429 9.78296 14.3879 9.75591C14.3469 9.72885 14.3009 9.71014 14.2526 9.70086C14.1551 9.6821 14.0541 9.70286 13.9719 9.75855C13.8897 9.81425 13.833 9.90032 13.8142 9.99784C13.7954 10.0954 13.8162 10.1963 13.8719 10.2786L14.9919 12.1886C15.1819 12.4552 15.3586 12.7319 15.5219 13.0186C15.6086 13.1659 15.6752 13.3226 15.7219 13.4886C15.7775 13.603 15.7939 13.7325 15.7686 13.8572C15.7433 13.9819 15.6777 14.0948 15.5819 14.1786C15.4388 14.2965 15.2656 14.3723 15.0819 14.3976V14.3076C14.9759 14.0805 14.8451 13.8659 14.6919 13.6676C14.4519 13.3776 14.2219 13.0976 13.9619 12.8276C13.7019 12.5576 13.4619 12.2976 13.1929 12.0486C13.1381 11.9816 13.0592 11.9388 12.9731 11.9294C12.8871 11.9201 12.8008 11.9449 12.7329 11.9986C12.6652 12.0551 12.6222 12.1358 12.6129 12.2234C12.6035 12.3111 12.6287 12.399 12.6829 12.4686C12.8429 12.7086 12.9829 12.9386 13.1229 13.1886C13.2629 13.4386 13.5129 13.9186 13.6929 14.2986L13.9729 14.9776L13.8329 15.2176C13.7654 15.3256 13.6764 15.4186 13.5715 15.4909C13.4666 15.5631 13.3479 15.6131 13.2229 15.6376C12.9813 15.7018 12.7245 15.6733 12.5029 15.5576C12.4615 15.5319 12.4155 15.5146 12.3675 15.5068C12.3195 15.4989 12.2704 15.5006 12.223 15.5117C12.1756 15.5229 12.1309 15.5433 12.0914 15.5717C12.0519 15.6002 12.0185 15.6361 11.9929 15.6776C11.9406 15.7626 11.9238 15.8649 11.9463 15.9622C11.9687 16.0595 12.0286 16.144 12.1129 16.1976C12.4343 16.4762 12.8476 16.6258 13.2729 16.6176C13.6562 16.6278 14.0343 16.5277 14.3623 16.3292C14.6903 16.1306 14.9543 15.8419 15.1229 15.4976C15.1529 15.3989 15.1729 15.2989 15.1829 15.1976C15.5267 15.2213 15.8708 15.1559 16.1819 15.0076C16.4762 14.8428 16.7122 14.5908 16.8572 14.2864C17.0023 13.9819 17.0494 13.6399 16.9919 13.3076C17.3616 13.2382 17.7065 13.0727 17.9919 12.8276C18.2195 12.62 18.403 12.3689 18.5317 12.089C18.6603 11.8092 18.7315 11.5064 18.7409 11.1986C18.7177 10.8956 18.6572 10.5967 18.5609 10.3086" fill="#1F4AAA"/>
<path fill-rule="evenodd" clip-rule="evenodd" d="M23.9889 9.07965C23.9772 9.0323 23.9563 8.98773 23.9273 8.9485C23.8983 8.90927 23.8619 8.87616 23.8201 8.85107C23.7782 8.82598 23.7319 8.8094 23.6836 8.80229C23.6354 8.79518 23.5862 8.79768 23.5389 8.80965C22.9289 8.87965 22.3389 8.89965 21.7489 8.99965C21.348 9.06525 20.9535 9.16563 20.5699 9.29965C20.1292 9.46648 19.7096 9.68465 19.3199 9.94965C18.4999 10.2897 18.9899 10.9497 19.7599 10.7297L20.6899 10.5397L21.3899 10.3697L22.0799 10.1497C22.6299 9.95965 23.1689 9.74965 23.7189 9.52965C23.7663 9.51796 23.8108 9.49702 23.8501 9.46805C23.8893 9.43907 23.9224 9.40262 23.9475 9.3608C23.9726 9.31898 23.9892 9.27261 23.9963 9.22436C24.0034 9.17611 24.0009 9.12693 23.9889 9.07965Z" fill="#2962E2"/>
</svg>
