<svg width="24" height="24" viewBox="0 0 24 24" fill="none" xmlns="http://www.w3.org/2000/svg">
<path fill-rule="evenodd" clip-rule="evenodd" d="M15.6111 1.58284C17.2678 1.34617 18.75 2.63169 18.75 4.3052V5.68171C19.9395 6.31045 20.75 7.56016 20.75 8.99918V18.9992C20.75 21.0703 19.0711 22.7492 17 22.7492H7C4.92893 22.7492 3.25 21.0703 3.25 18.9992V4.99918C3.25 4.98989 3.25017 4.98063 3.2505 4.97141C3.25017 4.95702 3.25 4.94259 3.25 4.92812C3.25 4.02186 3.91638 3.25352 4.81353 3.12535L15.6111 1.58284ZM4.75 6.74918V18.9992C4.75 20.2418 5.75736 21.2492 7 21.2492H17C18.2426 21.2492 19.25 20.2418 19.25 18.9992V8.99918C19.25 7.75654 18.2426 6.74918 17 6.74918H4.75ZM5.07107 5.24918H17.25V4.3052C17.25 3.54452 16.5763 2.96019 15.8232 3.06777L5.02566 4.61028C4.86749 4.63287 4.75 4.76834 4.75 4.92812C4.75 5.10544 4.89375 5.24918 5.07107 5.24918ZM7.25 11.9992C7.25 11.585 7.58579 11.2492 8 11.2492H16C16.4142 11.2492 16.75 11.585 16.75 11.9992C16.75 12.4134 16.4142 12.7492 16 12.7492H8C7.58579 12.7492 7.25 12.4134 7.25 11.9992ZM7.25 15.4992C7.25 15.085 7.58579 14.7492 8 14.7492H13.5C13.9142 14.7492 14.25 15.085 14.25 15.4992C14.25 15.9134 13.9142 16.2492 13.5 16.2492H8C7.58579 16.2492 7.25 15.9134 7.25 15.4992Z" fill="#2962E2"/>
</svg>
